<svg width="1116" height="643" viewBox="0 0 1116 643" fill="none" xmlns="http://www.w3.org/2000/svg">
<rect width="1116" height="642.49" rx="30" fill="white"/>
<path d="M328.29 507.4V527H325.294L314.486 513.728V527H310.874V507.4H313.87L324.678 520.672V507.4H328.29ZM347.262 519.608C347.262 519.851 347.243 520.196 347.206 520.644H335.474C335.679 521.745 336.211 522.623 337.07 523.276C337.947 523.911 339.03 524.228 340.318 524.228C341.961 524.228 343.314 523.687 344.378 522.604L346.254 524.76C345.582 525.563 344.733 526.169 343.706 526.58C342.679 526.991 341.522 527.196 340.234 527.196C338.591 527.196 337.145 526.869 335.894 526.216C334.643 525.563 333.673 524.657 332.982 523.5C332.31 522.324 331.974 520.999 331.974 519.524C331.974 518.068 332.301 516.761 332.954 515.604C333.626 514.428 334.55 513.513 335.726 512.86C336.902 512.207 338.227 511.88 339.702 511.88C341.158 511.88 342.455 512.207 343.594 512.86C344.751 513.495 345.647 514.4 346.282 515.576C346.935 516.733 347.262 518.077 347.262 519.608ZM339.702 514.68C338.582 514.68 337.63 515.016 336.846 515.688C336.081 516.341 335.614 517.219 335.446 518.32H343.93C343.781 517.237 343.323 516.36 342.558 515.688C341.793 515.016 340.841 514.68 339.702 514.68ZM359.108 511.88C360.993 511.88 362.505 512.431 363.644 513.532C364.783 514.633 365.352 516.267 365.352 518.432V527H361.852V518.88C361.852 517.573 361.544 516.593 360.928 515.94C360.312 515.268 359.435 514.932 358.296 514.932C357.008 514.932 355.991 515.324 355.244 516.108C354.497 516.873 354.124 517.984 354.124 519.44V527H350.624V512.048H353.956V513.98C354.535 513.289 355.263 512.767 356.14 512.412C357.017 512.057 358.007 511.88 359.108 511.88ZM378.276 511.88C380.161 511.88 381.673 512.431 382.812 513.532C383.951 514.633 384.52 516.267 384.52 518.432V527H381.02V518.88C381.02 517.573 380.712 516.593 380.096 515.94C379.48 515.268 378.603 514.932 377.464 514.932C376.176 514.932 375.159 515.324 374.412 516.108C373.665 516.873 373.292 517.984 373.292 519.44V527H369.792V506.224H373.292V513.784C373.871 513.168 374.58 512.701 375.42 512.384C376.279 512.048 377.231 511.88 378.276 511.88ZM403.436 512.048V527H400.104V525.096C399.544 525.768 398.844 526.291 398.004 526.664C397.164 527.019 396.259 527.196 395.288 527.196C393.291 527.196 391.713 526.645 390.556 525.544C389.417 524.424 388.848 522.772 388.848 520.588V512.048H392.348V520.112C392.348 521.456 392.647 522.464 393.244 523.136C393.86 523.789 394.728 524.116 395.848 524.116C397.099 524.116 398.088 523.733 398.816 522.968C399.563 522.184 399.936 521.064 399.936 519.608V512.048H403.436ZM426.891 511.88C428.776 511.88 430.269 512.431 431.371 513.532C432.472 514.615 433.023 516.248 433.023 518.432V527H429.523V518.88C429.523 517.573 429.233 516.593 428.655 515.94C428.076 515.268 427.245 514.932 426.163 514.932C424.987 514.932 424.044 515.324 423.335 516.108C422.625 516.873 422.271 517.975 422.271 519.412V527H418.771V518.88C418.771 517.573 418.481 516.593 417.903 515.94C417.324 515.268 416.493 514.932 415.411 514.932C414.216 514.932 413.264 515.315 412.555 516.08C411.864 516.845 411.519 517.956 411.519 519.412V527H408.019V512.048H411.351V513.952C411.911 513.28 412.611 512.767 413.451 512.412C414.291 512.057 415.224 511.88 416.251 511.88C417.371 511.88 418.36 512.095 419.219 512.524C420.096 512.935 420.787 513.551 421.291 514.372C421.907 513.588 422.7 512.981 423.671 512.552C424.641 512.104 425.715 511.88 426.891 511.88ZM448.566 514.232C449.574 512.664 451.347 511.88 453.886 511.88V515.212C453.587 515.156 453.316 515.128 453.074 515.128C451.711 515.128 450.647 515.529 449.882 516.332C449.116 517.116 448.734 518.255 448.734 519.748V527H445.234V512.048H448.566V514.232ZM470.774 519.608C470.774 519.851 470.755 520.196 470.718 520.644H458.986C459.191 521.745 459.723 522.623 460.582 523.276C461.459 523.911 462.542 524.228 463.83 524.228C465.473 524.228 466.826 523.687 467.89 522.604L469.766 524.76C469.094 525.563 468.245 526.169 467.218 526.58C466.191 526.991 465.034 527.196 463.746 527.196C462.103 527.196 460.657 526.869 459.406 526.216C458.155 525.563 457.185 524.657 456.494 523.5C455.822 522.324 455.486 520.999 455.486 519.524C455.486 518.068 455.813 516.761 456.466 515.604C457.138 514.428 458.062 513.513 459.238 512.86C460.414 512.207 461.739 511.88 463.214 511.88C464.67 511.88 465.967 512.207 467.106 512.86C468.263 513.495 469.159 514.4 469.794 515.576C470.447 516.733 470.774 518.077 470.774 519.608ZM463.214 514.68C462.094 514.68 461.142 515.016 460.358 515.688C459.593 516.341 459.126 517.219 458.958 518.32H467.442C467.293 517.237 466.835 516.36 466.07 515.688C465.305 515.016 464.353 514.68 463.214 514.68ZM478.756 527.196C477.543 527.196 476.357 527.037 475.2 526.72C474.043 526.403 473.119 526.001 472.428 525.516L473.772 522.856C474.444 523.304 475.247 523.668 476.18 523.948C477.132 524.209 478.065 524.34 478.98 524.34C481.071 524.34 482.116 523.789 482.116 522.688C482.116 522.165 481.845 521.801 481.304 521.596C480.781 521.391 479.932 521.195 478.756 521.008C477.524 520.821 476.516 520.607 475.732 520.364C474.967 520.121 474.295 519.701 473.716 519.104C473.156 518.488 472.876 517.639 472.876 516.556C472.876 515.137 473.464 514.008 474.64 513.168C475.835 512.309 477.44 511.88 479.456 511.88C480.483 511.88 481.509 512.001 482.536 512.244C483.563 512.468 484.403 512.776 485.056 513.168L483.712 515.828C482.443 515.081 481.015 514.708 479.428 514.708C478.401 514.708 477.617 514.867 477.076 515.184C476.553 515.483 476.292 515.884 476.292 516.388C476.292 516.948 476.572 517.349 477.132 517.592C477.711 517.816 478.597 518.031 479.792 518.236C480.987 518.423 481.967 518.637 482.732 518.88C483.497 519.123 484.151 519.533 484.692 520.112C485.252 520.691 485.532 521.512 485.532 522.576C485.532 523.976 484.925 525.096 483.712 525.936C482.499 526.776 480.847 527.196 478.756 527.196ZM503.022 512.048V527H499.69V525.096C499.13 525.768 498.43 526.291 497.59 526.664C496.75 527.019 495.845 527.196 494.874 527.196C492.877 527.196 491.299 526.645 490.142 525.544C489.003 524.424 488.434 522.772 488.434 520.588V512.048H491.934V520.112C491.934 521.456 492.233 522.464 492.83 523.136C493.446 523.789 494.314 524.116 495.434 524.116C496.685 524.116 497.674 523.733 498.402 522.968C499.149 522.184 499.522 521.064 499.522 519.608V512.048H503.022ZM507.605 506.224H511.105V527H507.605V506.224ZM525.425 526.188C525.014 526.524 524.51 526.776 523.913 526.944C523.334 527.112 522.718 527.196 522.065 527.196C520.422 527.196 519.153 526.767 518.257 525.908C517.361 525.049 516.913 523.799 516.913 522.156V514.96H514.449V512.16H516.913V508.744H520.413V512.16H524.417V514.96H520.413V522.072C520.413 522.8 520.59 523.36 520.945 523.752C521.299 524.125 521.813 524.312 522.485 524.312C523.269 524.312 523.922 524.107 524.445 523.696L525.425 526.188ZM534.016 511.88C536.218 511.88 537.898 512.412 539.056 513.476C540.232 514.521 540.82 516.108 540.82 518.236V527H537.516V525.18C537.086 525.833 536.47 526.337 535.668 526.692C534.884 527.028 533.932 527.196 532.812 527.196C531.692 527.196 530.712 527.009 529.872 526.636C529.032 526.244 528.378 525.712 527.912 525.04C527.464 524.349 527.24 523.575 527.24 522.716C527.24 521.372 527.734 520.299 528.724 519.496C529.732 518.675 531.309 518.264 533.456 518.264H537.32V518.04C537.32 516.995 537.002 516.192 536.368 515.632C535.752 515.072 534.828 514.792 533.596 514.792C532.756 514.792 531.925 514.923 531.104 515.184C530.301 515.445 529.62 515.809 529.06 516.276L527.688 513.728C528.472 513.131 529.414 512.673 530.516 512.356C531.617 512.039 532.784 511.88 534.016 511.88ZM533.54 524.648C534.417 524.648 535.192 524.452 535.864 524.06C536.554 523.649 537.04 523.071 537.32 522.324V520.588H533.708C531.692 520.588 530.684 521.251 530.684 522.576C530.684 523.211 530.936 523.715 531.44 524.088C531.944 524.461 532.644 524.648 533.54 524.648ZM560.092 506.224V527H556.732V525.068C556.154 525.777 555.435 526.309 554.576 526.664C553.736 527.019 552.803 527.196 551.776 527.196C550.339 527.196 549.042 526.879 547.884 526.244C546.746 525.609 545.85 524.713 545.196 523.556C544.543 522.38 544.216 521.036 544.216 519.524C544.216 518.012 544.543 516.677 545.196 515.52C545.85 514.363 546.746 513.467 547.884 512.832C549.042 512.197 550.339 511.88 551.776 511.88C552.766 511.88 553.671 512.048 554.492 512.384C555.314 512.72 556.014 513.224 556.592 513.896V506.224H560.092ZM552.196 524.2C553.036 524.2 553.792 524.013 554.464 523.64C555.136 523.248 555.668 522.697 556.06 521.988C556.452 521.279 556.648 520.457 556.648 519.524C556.648 518.591 556.452 517.769 556.06 517.06C555.668 516.351 555.136 515.809 554.464 515.436C553.792 515.044 553.036 514.848 552.196 514.848C551.356 514.848 550.6 515.044 549.928 515.436C549.256 515.809 548.724 516.351 548.332 517.06C547.94 517.769 547.744 518.591 547.744 519.524C547.744 520.457 547.94 521.279 548.332 521.988C548.724 522.697 549.256 523.248 549.928 523.64C550.6 524.013 551.356 524.2 552.196 524.2ZM571.391 527.196C569.879 527.196 568.516 526.869 567.303 526.216C566.09 525.563 565.138 524.657 564.447 523.5C563.775 522.324 563.439 520.999 563.439 519.524C563.439 518.049 563.775 516.733 564.447 515.576C565.138 514.419 566.09 513.513 567.303 512.86C568.516 512.207 569.879 511.88 571.391 511.88C572.922 511.88 574.294 512.207 575.507 512.86C576.72 513.513 577.663 514.419 578.335 515.576C579.026 516.733 579.371 518.049 579.371 519.524C579.371 520.999 579.026 522.324 578.335 523.5C577.663 524.657 576.72 525.563 575.507 526.216C574.294 526.869 572.922 527.196 571.391 527.196ZM571.391 524.2C572.679 524.2 573.743 523.771 574.583 522.912C575.423 522.053 575.843 520.924 575.843 519.524C575.843 518.124 575.423 516.995 574.583 516.136C573.743 515.277 572.679 514.848 571.391 514.848C570.103 514.848 569.039 515.277 568.199 516.136C567.378 516.995 566.967 518.124 566.967 519.524C566.967 520.924 567.378 522.053 568.199 522.912C569.039 523.771 570.103 524.2 571.391 524.2ZM596.532 508.856C595.057 508.856 594.32 509.659 594.32 511.264V512.16H598.436V514.96H594.432V527H590.932V514.96H588.468V512.16H590.932V511.208C590.932 509.603 591.399 508.343 592.332 507.428C593.265 506.495 594.581 506.028 596.28 506.028C597.624 506.028 598.679 506.299 599.444 506.84L598.464 509.472C597.867 509.061 597.223 508.856 596.532 508.856ZM607.293 527.196C605.781 527.196 604.419 526.869 603.205 526.216C601.992 525.563 601.04 524.657 600.349 523.5C599.677 522.324 599.341 520.999 599.341 519.524C599.341 518.049 599.677 516.733 600.349 515.576C601.04 514.419 601.992 513.513 603.205 512.86C604.419 512.207 605.781 511.88 607.293 511.88C608.824 511.88 610.196 512.207 611.409 512.86C612.623 513.513 613.565 514.419 614.237 515.576C614.928 516.733 615.273 518.049 615.273 519.524C615.273 520.999 614.928 522.324 614.237 523.5C613.565 524.657 612.623 525.563 611.409 526.216C610.196 526.869 608.824 527.196 607.293 527.196ZM607.293 524.2C608.581 524.2 609.645 523.771 610.485 522.912C611.325 522.053 611.745 520.924 611.745 519.524C611.745 518.124 611.325 516.995 610.485 516.136C609.645 515.277 608.581 514.848 607.293 514.848C606.005 514.848 604.941 515.277 604.101 516.136C603.28 516.995 602.869 518.124 602.869 519.524C602.869 520.924 603.28 522.053 604.101 522.912C604.941 523.771 606.005 524.2 607.293 524.2ZM618.62 512.048H622.12V527H618.62V512.048ZM620.384 509.584C619.75 509.584 619.218 509.388 618.788 508.996C618.359 508.585 618.144 508.081 618.144 507.484C618.144 506.887 618.359 506.392 618.788 506C619.218 505.589 619.75 505.384 620.384 505.384C621.019 505.384 621.551 505.58 621.98 505.972C622.41 506.345 622.624 506.821 622.624 507.4C622.624 508.016 622.41 508.539 621.98 508.968C621.57 509.379 621.038 509.584 620.384 509.584ZM648.508 519.608C648.508 519.851 648.49 520.196 648.452 520.644H636.72C636.926 521.745 637.458 522.623 638.316 523.276C639.194 523.911 640.276 524.228 641.564 524.228C643.207 524.228 644.56 523.687 645.624 522.604L647.5 524.76C646.828 525.563 645.979 526.169 644.952 526.58C643.926 526.991 642.768 527.196 641.48 527.196C639.838 527.196 638.391 526.869 637.14 526.216C635.89 525.563 634.919 524.657 634.228 523.5C633.556 522.324 633.22 520.999 633.22 519.524C633.22 518.068 633.547 516.761 634.2 515.604C634.872 514.428 635.796 513.513 636.972 512.86C638.148 512.207 639.474 511.88 640.948 511.88C642.404 511.88 643.702 512.207 644.84 512.86C645.998 513.495 646.894 514.4 647.528 515.576C648.182 516.733 648.508 518.077 648.508 519.608ZM640.948 514.68C639.828 514.68 638.876 515.016 638.092 515.688C637.327 516.341 636.86 517.219 636.692 518.32H645.176C645.027 517.237 644.57 516.36 643.804 515.688C643.039 515.016 642.087 514.68 640.948 514.68ZM660.354 511.88C662.24 511.88 663.752 512.431 664.89 513.532C666.029 514.633 666.598 516.267 666.598 518.432V527H663.098V518.88C663.098 517.573 662.79 516.593 662.174 515.94C661.558 515.268 660.681 514.932 659.542 514.932C658.254 514.932 657.237 515.324 656.49 516.108C655.744 516.873 655.37 517.984 655.37 519.44V527H651.87V512.048H655.202V513.98C655.781 513.289 656.509 512.767 657.386 512.412C658.264 512.057 659.253 511.88 660.354 511.88ZM678.035 527.196C676.486 527.196 675.095 526.869 673.863 526.216C672.631 525.563 671.67 524.657 670.979 523.5C670.288 522.324 669.943 520.999 669.943 519.524C669.943 518.049 670.288 516.733 670.979 515.576C671.67 514.419 672.622 513.513 673.835 512.86C675.067 512.207 676.467 511.88 678.035 511.88C679.51 511.88 680.798 512.179 681.899 512.776C683.019 513.373 683.859 514.232 684.419 515.352L681.731 516.92C681.302 516.229 680.76 515.716 680.107 515.38C679.472 515.025 678.772 514.848 678.007 514.848C676.7 514.848 675.618 515.277 674.759 516.136C673.9 516.976 673.471 518.105 673.471 519.524C673.471 520.943 673.891 522.081 674.731 522.94C675.59 523.78 676.682 524.2 678.007 524.2C678.772 524.2 679.472 524.032 680.107 523.696C680.76 523.341 681.302 522.819 681.731 522.128L684.419 523.696C683.84 524.816 682.991 525.684 681.871 526.3C680.77 526.897 679.491 527.196 678.035 527.196ZM693.946 527.196C692.434 527.196 691.071 526.869 689.858 526.216C688.644 525.563 687.692 524.657 687.002 523.5C686.33 522.324 685.994 520.999 685.994 519.524C685.994 518.049 686.33 516.733 687.002 515.576C687.692 514.419 688.644 513.513 689.858 512.86C691.071 512.207 692.434 511.88 693.946 511.88C695.476 511.88 696.848 512.207 698.062 512.86C699.275 513.513 700.218 514.419 700.89 515.576C701.58 516.733 701.926 518.049 701.926 519.524C701.926 520.999 701.58 522.324 700.89 523.5C700.218 524.657 699.275 525.563 698.062 526.216C696.848 526.869 695.476 527.196 693.946 527.196ZM693.946 524.2C695.234 524.2 696.298 523.771 697.138 522.912C697.978 522.053 698.398 520.924 698.398 519.524C698.398 518.124 697.978 516.995 697.138 516.136C696.298 515.277 695.234 514.848 693.946 514.848C692.658 514.848 691.594 515.277 690.754 516.136C689.932 516.995 689.522 518.124 689.522 519.524C689.522 520.924 689.932 522.053 690.754 522.912C691.594 523.771 692.658 524.2 693.946 524.2ZM713.757 511.88C715.642 511.88 717.154 512.431 718.293 513.532C719.431 514.633 720.001 516.267 720.001 518.432V527H716.501V518.88C716.501 517.573 716.193 516.593 715.577 515.94C714.961 515.268 714.083 514.932 712.945 514.932C711.657 514.932 710.639 515.324 709.893 516.108C709.146 516.873 708.773 517.984 708.773 519.44V527H705.273V512.048H708.605V513.98C709.183 513.289 709.911 512.767 710.789 512.412C711.666 512.057 712.655 511.88 713.757 511.88ZM733.429 526.188C733.018 526.524 732.514 526.776 731.917 526.944C731.338 527.112 730.722 527.196 730.069 527.196C728.426 527.196 727.157 526.767 726.261 525.908C725.365 525.049 724.917 523.799 724.917 522.156V514.96H722.453V512.16H724.917V508.744H728.417V512.16H732.421V514.96H728.417V522.072C728.417 522.8 728.594 523.36 728.949 523.752C729.303 524.125 729.817 524.312 730.489 524.312C731.273 524.312 731.926 524.107 732.449 523.696L733.429 526.188ZM739.64 514.232C740.648 512.664 742.421 511.88 744.96 511.88V515.212C744.661 515.156 744.39 515.128 744.148 515.128C742.785 515.128 741.721 515.529 740.956 516.332C740.19 517.116 739.808 518.255 739.808 519.748V527H736.308V512.048H739.64V514.232ZM753.559 511.88C755.761 511.88 757.441 512.412 758.599 513.476C759.775 514.521 760.363 516.108 760.363 518.236V527H757.059V525.18C756.629 525.833 756.013 526.337 755.211 526.692C754.427 527.028 753.475 527.196 752.355 527.196C751.235 527.196 750.255 527.009 749.415 526.636C748.575 526.244 747.921 525.712 747.455 525.04C747.007 524.349 746.783 523.575 746.783 522.716C746.783 521.372 747.277 520.299 748.267 519.496C749.275 518.675 750.852 518.264 752.999 518.264H756.863V518.04C756.863 516.995 756.545 516.192 755.911 515.632C755.295 515.072 754.371 514.792 753.139 514.792C752.299 514.792 751.468 514.923 750.647 515.184C749.844 515.445 749.163 515.809 748.603 516.276L747.231 513.728C748.015 513.131 748.957 512.673 750.059 512.356C751.16 512.039 752.327 511.88 753.559 511.88ZM753.083 524.648C753.96 524.648 754.735 524.452 755.407 524.06C756.097 523.649 756.583 523.071 756.863 522.324V520.588H753.251C751.235 520.588 750.227 521.251 750.227 522.576C750.227 523.211 750.479 523.715 750.983 524.088C751.487 524.461 752.187 524.648 753.083 524.648ZM779.635 506.224V527H776.275V525.068C775.697 525.777 774.978 526.309 774.119 526.664C773.279 527.019 772.346 527.196 771.319 527.196C769.882 527.196 768.585 526.879 767.427 526.244C766.289 525.609 765.393 524.713 764.739 523.556C764.086 522.38 763.759 521.036 763.759 519.524C763.759 518.012 764.086 516.677 764.739 515.52C765.393 514.363 766.289 513.467 767.427 512.832C768.585 512.197 769.882 511.88 771.319 511.88C772.309 511.88 773.214 512.048 774.035 512.384C774.857 512.72 775.557 513.224 776.135 513.896V506.224H779.635ZM771.739 524.2C772.579 524.2 773.335 524.013 774.007 523.64C774.679 523.248 775.211 522.697 775.603 521.988C775.995 521.279 776.191 520.457 776.191 519.524C776.191 518.591 775.995 517.769 775.603 517.06C775.211 516.351 774.679 515.809 774.007 515.436C773.335 515.044 772.579 514.848 771.739 514.848C770.899 514.848 770.143 515.044 769.471 515.436C768.799 515.809 768.267 516.351 767.875 517.06C767.483 517.769 767.287 518.591 767.287 519.524C767.287 520.457 767.483 521.279 767.875 521.988C768.267 522.697 768.799 523.248 769.471 523.64C770.143 524.013 770.899 524.2 771.739 524.2ZM790.934 527.196C789.422 527.196 788.059 526.869 786.846 526.216C785.633 525.563 784.681 524.657 783.99 523.5C783.318 522.324 782.982 520.999 782.982 519.524C782.982 518.049 783.318 516.733 783.99 515.576C784.681 514.419 785.633 513.513 786.846 512.86C788.059 512.207 789.422 511.88 790.934 511.88C792.465 511.88 793.837 512.207 795.05 512.86C796.263 513.513 797.206 514.419 797.878 515.576C798.569 516.733 798.914 518.049 798.914 519.524C798.914 520.999 798.569 522.324 797.878 523.5C797.206 524.657 796.263 525.563 795.05 526.216C793.837 526.869 792.465 527.196 790.934 527.196ZM790.934 524.2C792.222 524.2 793.286 523.771 794.126 522.912C794.966 522.053 795.386 520.924 795.386 519.524C795.386 518.124 794.966 516.995 794.126 516.136C793.286 515.277 792.222 514.848 790.934 514.848C789.646 514.848 788.582 515.277 787.742 516.136C786.921 516.995 786.51 518.124 786.51 519.524C786.51 520.924 786.921 522.053 787.742 522.912C788.582 523.771 789.646 524.2 790.934 524.2ZM801.813 507.4H805.957L805.257 520.504H802.485L801.813 507.4ZM803.885 527.196C803.232 527.196 802.69 526.991 802.261 526.58C801.832 526.151 801.617 525.628 801.617 525.012C801.617 524.396 801.832 523.883 802.261 523.472C802.69 523.061 803.232 522.856 803.885 522.856C804.52 522.856 805.042 523.061 805.453 523.472C805.882 523.883 806.097 524.396 806.097 525.012C806.097 525.628 805.882 526.151 805.453 526.58C805.042 526.991 804.52 527.196 803.885 527.196Z" fill="#F08889"/>
<path d="M380.182 556.2L372.862 573H369.79L362.446 556.2H365.83L371.422 569.16L377.062 556.2H380.182ZM392.754 566.664C392.754 566.872 392.738 567.168 392.706 567.552H382.65C382.826 568.496 383.282 569.248 384.018 569.808C384.77 570.352 385.698 570.624 386.802 570.624C388.21 570.624 389.37 570.16 390.282 569.232L391.89 571.08C391.314 571.768 390.586 572.288 389.706 572.64C388.826 572.992 387.834 573.168 386.73 573.168C385.322 573.168 384.082 572.888 383.01 572.328C381.938 571.768 381.106 570.992 380.514 570C379.938 568.992 379.65 567.856 379.65 566.592C379.65 565.344 379.93 564.224 380.49 563.232C381.066 562.224 381.858 561.44 382.866 560.88C383.874 560.32 385.01 560.04 386.274 560.04C387.522 560.04 388.634 560.32 389.61 560.88C390.602 561.424 391.37 562.2 391.914 563.208C392.474 564.2 392.754 565.352 392.754 566.664ZM386.274 562.44C385.314 562.44 384.498 562.728 383.826 563.304C383.17 563.864 382.77 564.616 382.626 565.56H389.898C389.77 564.632 389.378 563.88 388.722 563.304C388.066 562.728 387.25 562.44 386.274 562.44ZM398.492 562.056C399.356 560.712 400.876 560.04 403.052 560.04V562.896C402.796 562.848 402.564 562.824 402.356 562.824C401.188 562.824 400.276 563.168 399.62 563.856C398.964 564.528 398.636 565.504 398.636 566.784V573H395.636V560.184H398.492V562.056ZM405.597 560.184H408.597V573H405.597V560.184ZM407.109 558.072C406.565 558.072 406.109 557.904 405.741 557.568C405.373 557.216 405.189 556.784 405.189 556.272C405.189 555.76 405.373 555.336 405.741 555C406.109 554.648 406.565 554.472 407.109 554.472C407.653 554.472 408.109 554.64 408.477 554.976C408.845 555.296 409.029 555.704 409.029 556.2C409.029 556.728 408.845 557.176 408.477 557.544C408.125 557.896 407.669 558.072 407.109 558.072ZM417.742 557.448C416.478 557.448 415.846 558.136 415.846 559.512V560.28H419.374V562.68H415.942V573H412.942V562.68H410.83V560.28H412.942V559.464C412.942 558.088 413.342 557.008 414.142 556.224C414.942 555.424 416.07 555.024 417.526 555.024C418.678 555.024 419.582 555.256 420.238 555.72L419.398 557.976C418.886 557.624 418.334 557.448 417.742 557.448ZM423.31 560.184H426.31V573H423.31V560.184ZM424.822 558.072C424.278 558.072 423.822 557.904 423.454 557.568C423.086 557.216 422.902 556.784 422.902 556.272C422.902 555.76 423.086 555.336 423.454 555C423.822 554.648 424.278 554.472 424.822 554.472C425.366 554.472 425.822 554.64 426.19 554.976C426.558 555.296 426.742 555.704 426.742 556.2C426.742 556.728 426.558 557.176 426.19 557.544C425.838 557.896 425.382 558.072 424.822 558.072ZM442.781 560.184V577.656H439.781V571.44C438.773 572.592 437.405 573.168 435.677 573.168C434.429 573.168 433.309 572.896 432.317 572.352C431.341 571.808 430.573 571.04 430.013 570.048C429.469 569.056 429.197 567.904 429.197 566.592C429.197 565.296 429.477 564.152 430.037 563.16C430.597 562.168 431.365 561.4 432.341 560.856C433.317 560.312 434.429 560.04 435.677 560.04C436.557 560.04 437.357 560.192 438.077 560.496C438.813 560.8 439.429 561.256 439.925 561.864V560.184H442.781ZM436.013 570.6C437.117 570.6 438.029 570.232 438.749 569.496C439.469 568.76 439.829 567.792 439.829 566.592C439.829 565.392 439.469 564.424 438.749 563.688C438.029 562.952 437.117 562.584 436.013 562.584C434.909 562.584 433.997 562.952 433.277 563.688C432.573 564.424 432.221 565.392 432.221 566.592C432.221 567.792 432.573 568.76 433.277 569.496C433.997 570.232 434.909 570.6 436.013 570.6ZM459.114 560.184V573H456.258V571.368C455.778 571.944 455.178 572.392 454.458 572.712C453.738 573.016 452.962 573.168 452.13 573.168C450.418 573.168 449.066 572.696 448.074 571.752C447.098 570.792 446.61 569.376 446.61 567.504V560.184H449.61V567.096C449.61 568.248 449.866 569.112 450.378 569.688C450.906 570.248 451.65 570.528 452.61 570.528C453.682 570.528 454.53 570.2 455.154 569.544C455.794 568.872 456.114 567.912 456.114 566.664V560.184H459.114ZM475.09 566.664C475.09 566.872 475.074 567.168 475.042 567.552H464.986C465.162 568.496 465.618 569.248 466.354 569.808C467.106 570.352 468.034 570.624 469.138 570.624C470.546 570.624 471.706 570.16 472.618 569.232L474.226 571.08C473.65 571.768 472.922 572.288 472.042 572.64C471.162 572.992 470.17 573.168 469.066 573.168C467.658 573.168 466.418 572.888 465.346 572.328C464.274 571.768 463.442 570.992 462.85 570C462.274 568.992 461.986 567.856 461.986 566.592C461.986 565.344 462.266 564.224 462.826 563.232C463.402 562.224 464.194 561.44 465.202 560.88C466.21 560.32 467.346 560.04 468.61 560.04C469.858 560.04 470.97 560.32 471.946 560.88C472.938 561.424 473.706 562.2 474.25 563.208C474.81 564.2 475.09 565.352 475.09 566.664ZM468.61 562.44C467.65 562.44 466.834 562.728 466.162 563.304C465.506 563.864 465.106 564.616 464.962 565.56H472.234C472.106 564.632 471.714 563.88 471.058 563.304C470.402 562.728 469.586 562.44 468.61 562.44ZM488.565 573.168C487.525 573.168 486.509 573.032 485.517 572.76C484.525 572.488 483.733 572.144 483.141 571.728L484.293 569.448C484.869 569.832 485.557 570.144 486.357 570.384C487.173 570.608 487.973 570.72 488.757 570.72C490.549 570.72 491.445 570.248 491.445 569.304C491.445 568.856 491.213 568.544 490.749 568.368C490.301 568.192 489.573 568.024 488.565 567.864C487.509 567.704 486.645 567.52 485.973 567.312C485.317 567.104 484.741 566.744 484.245 566.232C483.765 565.704 483.525 564.976 483.525 564.048C483.525 562.832 484.029 561.864 485.037 561.144C486.061 560.408 487.437 560.04 489.165 560.04C490.045 560.04 490.925 560.144 491.805 560.352C492.685 560.544 493.405 560.808 493.965 561.144L492.813 563.424C491.725 562.784 490.501 562.464 489.141 562.464C488.261 562.464 487.589 562.6 487.125 562.872C486.677 563.128 486.453 563.472 486.453 563.904C486.453 564.384 486.693 564.728 487.173 564.936C487.669 565.128 488.429 565.312 489.453 565.488C490.477 565.648 491.317 565.832 491.973 566.04C492.629 566.248 493.189 566.6 493.653 567.096C494.133 567.592 494.373 568.296 494.373 569.208C494.373 570.408 493.853 571.368 492.813 572.088C491.773 572.808 490.357 573.168 488.565 573.168ZM509.004 566.664C509.004 566.872 508.988 567.168 508.956 567.552H498.9C499.076 568.496 499.532 569.248 500.268 569.808C501.02 570.352 501.948 570.624 503.052 570.624C504.46 570.624 505.62 570.16 506.532 569.232L508.14 571.08C507.564 571.768 506.836 572.288 505.956 572.64C505.076 572.992 504.084 573.168 502.98 573.168C501.572 573.168 500.332 572.888 499.26 572.328C498.188 571.768 497.356 570.992 496.764 570C496.188 568.992 495.9 567.856 495.9 566.592C495.9 565.344 496.18 564.224 496.74 563.232C497.316 562.224 498.108 561.44 499.116 560.88C500.124 560.32 501.26 560.04 502.524 560.04C503.772 560.04 504.884 560.32 505.86 560.88C506.852 561.424 507.62 562.2 508.164 563.208C508.724 564.2 509.004 565.352 509.004 566.664ZM502.524 562.44C501.564 562.44 500.748 562.728 500.076 563.304C499.42 563.864 499.02 564.616 498.876 565.56H506.148C506.02 564.632 505.628 563.88 504.972 563.304C504.316 562.728 503.5 562.44 502.524 562.44ZM530.567 566.664C530.567 566.872 530.551 567.168 530.519 567.552H520.463C520.639 568.496 521.095 569.248 521.831 569.808C522.583 570.352 523.511 570.624 524.615 570.624C526.023 570.624 527.183 570.16 528.095 569.232L529.703 571.08C529.127 571.768 528.399 572.288 527.519 572.64C526.639 572.992 525.647 573.168 524.543 573.168C523.135 573.168 521.895 572.888 520.823 572.328C519.751 571.768 518.919 570.992 518.327 570C517.751 568.992 517.463 567.856 517.463 566.592C517.463 565.344 517.743 564.224 518.303 563.232C518.879 562.224 519.671 561.44 520.679 560.88C521.687 560.32 522.823 560.04 524.087 560.04C525.335 560.04 526.447 560.32 527.423 560.88C528.415 561.424 529.183 562.2 529.727 563.208C530.287 564.2 530.567 565.352 530.567 566.664ZM524.087 562.44C523.127 562.44 522.311 562.728 521.639 563.304C520.983 563.864 520.583 564.616 520.439 565.56H527.711C527.583 564.632 527.191 563.88 526.535 563.304C525.879 562.728 525.063 562.44 524.087 562.44ZM537.408 573.168C536.368 573.168 535.352 573.032 534.36 572.76C533.368 572.488 532.576 572.144 531.984 571.728L533.136 569.448C533.712 569.832 534.4 570.144 535.2 570.384C536.016 570.608 536.816 570.72 537.6 570.72C539.392 570.72 540.288 570.248 540.288 569.304C540.288 568.856 540.056 568.544 539.592 568.368C539.144 568.192 538.416 568.024 537.408 567.864C536.352 567.704 535.488 567.52 534.816 567.312C534.16 567.104 533.584 566.744 533.088 566.232C532.608 565.704 532.368 564.976 532.368 564.048C532.368 562.832 532.872 561.864 533.88 561.144C534.904 560.408 536.28 560.04 538.008 560.04C538.888 560.04 539.768 560.144 540.648 560.352C541.528 560.544 542.248 560.808 542.808 561.144L541.656 563.424C540.568 562.784 539.344 562.464 537.984 562.464C537.104 562.464 536.432 562.6 535.968 562.872C535.52 563.128 535.296 563.472 535.296 563.904C535.296 564.384 535.536 564.728 536.016 564.936C536.512 565.128 537.272 565.312 538.296 565.488C539.32 565.648 540.16 565.832 540.816 566.04C541.472 566.248 542.032 566.6 542.496 567.096C542.976 567.592 543.216 568.296 543.216 569.208C543.216 570.408 542.696 571.368 541.656 572.088C540.616 572.808 539.2 573.168 537.408 573.168ZM551.68 573.168C550.352 573.168 549.16 572.888 548.104 572.328C547.048 571.768 546.224 570.992 545.632 570C545.04 568.992 544.744 567.856 544.744 566.592C544.744 565.328 545.04 564.2 545.632 563.208C546.224 562.216 547.04 561.44 548.08 560.88C549.136 560.32 550.336 560.04 551.68 560.04C552.944 560.04 554.048 560.296 554.992 560.808C555.952 561.32 556.672 562.056 557.152 563.016L554.848 564.36C554.48 563.768 554.016 563.328 553.456 563.04C552.912 562.736 552.312 562.584 551.656 562.584C550.536 562.584 549.608 562.952 548.872 563.688C548.136 564.408 547.768 565.376 547.768 566.592C547.768 567.808 548.128 568.784 548.848 569.52C549.584 570.24 550.52 570.6 551.656 570.6C552.312 570.6 552.912 570.456 553.456 570.168C554.016 569.864 554.48 569.416 554.848 568.824L557.152 570.168C556.656 571.128 555.928 571.872 554.968 572.4C554.024 572.912 552.928 573.168 551.68 573.168ZM562.601 562.056C563.465 560.712 564.985 560.04 567.161 560.04V562.896C566.905 562.848 566.673 562.824 566.465 562.824C565.297 562.824 564.385 563.168 563.729 563.856C563.073 564.528 562.745 565.504 562.745 566.784V573H559.745V560.184H562.601V562.056ZM569.706 560.184H572.706V573H569.706V560.184ZM571.218 558.072C570.674 558.072 570.218 557.904 569.85 557.568C569.482 557.216 569.298 556.784 569.298 556.272C569.298 555.76 569.482 555.336 569.85 555C570.218 554.648 570.674 554.472 571.218 554.472C571.762 554.472 572.218 554.64 572.586 554.976C572.954 555.296 573.138 555.704 573.138 556.2C573.138 556.728 572.954 557.176 572.586 557.544C572.234 557.896 571.778 558.072 571.218 558.072ZM584.348 572.304C583.996 572.592 583.564 572.808 583.052 572.952C582.556 573.096 582.028 573.168 581.468 573.168C580.06 573.168 578.972 572.8 578.204 572.064C577.436 571.328 577.052 570.256 577.052 568.848V562.68H574.94V560.28H577.052V557.352H580.052V560.28H583.484V562.68H580.052V568.776C580.052 569.4 580.204 569.88 580.508 570.216C580.812 570.536 581.252 570.696 581.828 570.696C582.5 570.696 583.06 570.52 583.508 570.168L584.348 572.304ZM591.712 560.04C593.6 560.04 595.04 560.496 596.032 561.408C597.04 562.304 597.544 563.664 597.544 565.488V573H594.712V571.44C594.344 572 593.816 572.432 593.128 572.736C592.456 573.024 591.64 573.168 590.68 573.168C589.72 573.168 588.88 573.008 588.16 572.688C587.44 572.352 586.88 571.896 586.48 571.32C586.096 570.728 585.904 570.064 585.904 569.328C585.904 568.176 586.328 567.256 587.176 566.568C588.04 565.864 589.392 565.512 591.232 565.512H594.544V565.32C594.544 564.424 594.272 563.736 593.728 563.256C593.2 562.776 592.408 562.536 591.352 562.536C590.632 562.536 589.92 562.648 589.216 562.872C588.528 563.096 587.944 563.408 587.464 563.808L586.288 561.624C586.96 561.112 587.768 560.72 588.712 560.448C589.656 560.176 590.656 560.04 591.712 560.04ZM591.304 570.984C592.056 570.984 592.72 570.816 593.296 570.48C593.888 570.128 594.304 569.632 594.544 568.992V567.504H591.448C589.72 567.504 588.856 568.072 588.856 569.208C588.856 569.752 589.072 570.184 589.504 570.504C589.936 570.824 590.536 570.984 591.304 570.984ZM620.075 566.664C620.075 566.872 620.059 567.168 620.027 567.552H609.971C610.147 568.496 610.603 569.248 611.339 569.808C612.091 570.352 613.019 570.624 614.123 570.624C615.531 570.624 616.691 570.16 617.603 569.232L619.211 571.08C618.635 571.768 617.907 572.288 617.027 572.64C616.147 572.992 615.155 573.168 614.051 573.168C612.643 573.168 611.403 572.888 610.331 572.328C609.259 571.768 608.427 570.992 607.835 570C607.259 568.992 606.971 567.856 606.971 566.592C606.971 565.344 607.251 564.224 607.811 563.232C608.387 562.224 609.179 561.44 610.187 560.88C611.195 560.32 612.331 560.04 613.595 560.04C614.843 560.04 615.955 560.32 616.931 560.88C617.923 561.424 618.691 562.2 619.235 563.208C619.795 564.2 620.075 565.352 620.075 566.664ZM613.595 562.44C612.635 562.44 611.819 562.728 611.147 563.304C610.491 563.864 610.091 564.616 609.947 565.56H617.219C617.091 564.632 616.699 563.88 616.043 563.304C615.387 562.728 614.571 562.44 613.595 562.44ZM626.916 573.168C625.876 573.168 624.86 573.032 623.868 572.76C622.876 572.488 622.084 572.144 621.492 571.728L622.644 569.448C623.22 569.832 623.908 570.144 624.708 570.384C625.524 570.608 626.324 570.72 627.108 570.72C628.9 570.72 629.796 570.248 629.796 569.304C629.796 568.856 629.564 568.544 629.1 568.368C628.652 568.192 627.924 568.024 626.916 567.864C625.86 567.704 624.996 567.52 624.324 567.312C623.668 567.104 623.092 566.744 622.596 566.232C622.116 565.704 621.876 564.976 621.876 564.048C621.876 562.832 622.38 561.864 623.388 561.144C624.412 560.408 625.788 560.04 627.516 560.04C628.396 560.04 629.276 560.144 630.156 560.352C631.036 560.544 631.756 560.808 632.316 561.144L631.164 563.424C630.076 562.784 628.852 562.464 627.492 562.464C626.612 562.464 625.94 562.6 625.476 562.872C625.028 563.128 624.804 563.472 624.804 563.904C624.804 564.384 625.044 564.728 625.524 564.936C626.02 565.128 626.78 565.312 627.804 565.488C628.828 565.648 629.668 565.832 630.324 566.04C630.98 566.248 631.54 566.6 632.004 567.096C632.484 567.592 632.724 568.296 632.724 569.208C632.724 570.408 632.204 571.368 631.164 572.088C630.124 572.808 628.708 573.168 626.916 573.168ZM643.012 572.304C642.66 572.592 642.228 572.808 641.716 572.952C641.22 573.096 640.692 573.168 640.132 573.168C638.724 573.168 637.636 572.8 636.868 572.064C636.1 571.328 635.716 570.256 635.716 568.848V562.68H633.604V560.28H635.716V557.352H638.716V560.28H642.148V562.68H638.716V568.776C638.716 569.4 638.868 569.88 639.172 570.216C639.476 570.536 639.916 570.696 640.492 570.696C641.164 570.696 641.724 570.52 642.172 570.168L643.012 572.304ZM650.376 560.04C652.264 560.04 653.704 560.496 654.696 561.408C655.704 562.304 656.208 563.664 656.208 565.488V573H653.376V571.44C653.008 572 652.48 572.432 651.792 572.736C651.12 573.024 650.304 573.168 649.344 573.168C648.384 573.168 647.544 573.008 646.824 572.688C646.104 572.352 645.544 571.896 645.144 571.32C644.76 570.728 644.568 570.064 644.568 569.328C644.568 568.176 644.992 567.256 645.84 566.568C646.704 565.864 648.056 565.512 649.896 565.512H653.208V565.32C653.208 564.424 652.936 563.736 652.392 563.256C651.864 562.776 651.072 562.536 650.016 562.536C649.296 562.536 648.584 562.648 647.88 562.872C647.192 563.096 646.608 563.408 646.128 563.808L644.952 561.624C645.624 561.112 646.432 560.72 647.376 560.448C648.32 560.176 649.32 560.04 650.376 560.04ZM649.968 570.984C650.72 570.984 651.384 570.816 651.96 570.48C652.552 570.128 652.968 569.632 653.208 568.992V567.504H650.112C648.384 567.504 647.52 568.072 647.52 569.208C647.52 569.752 647.736 570.184 648.168 570.504C648.6 570.824 649.2 570.984 649.968 570.984ZM651.864 555.144H655.392L651.216 558.432H648.624L651.864 555.144ZM672.571 573.168C671.243 573.168 670.051 572.888 668.995 572.328C667.939 571.768 667.115 570.992 666.523 570C665.931 568.992 665.635 567.856 665.635 566.592C665.635 565.328 665.931 564.2 666.523 563.208C667.115 562.216 667.931 561.44 668.971 560.88C670.027 560.32 671.227 560.04 672.571 560.04C673.835 560.04 674.939 560.296 675.883 560.808C676.843 561.32 677.563 562.056 678.043 563.016L675.739 564.36C675.371 563.768 674.907 563.328 674.347 563.04C673.803 562.736 673.203 562.584 672.547 562.584C671.427 562.584 670.499 562.952 669.763 563.688C669.027 564.408 668.659 565.376 668.659 566.592C668.659 567.808 669.019 568.784 669.739 569.52C670.475 570.24 671.411 570.6 672.547 570.6C673.203 570.6 673.803 570.456 674.347 570.168C674.907 569.864 675.371 569.416 675.739 568.824L678.043 570.168C677.547 571.128 676.819 571.872 675.859 572.4C674.915 572.912 673.819 573.168 672.571 573.168ZM686.208 573.168C684.912 573.168 683.744 572.888 682.704 572.328C681.664 571.768 680.848 570.992 680.256 570C679.68 568.992 679.392 567.856 679.392 566.592C679.392 565.328 679.68 564.2 680.256 563.208C680.848 562.216 681.664 561.44 682.704 560.88C683.744 560.32 684.912 560.04 686.208 560.04C687.52 560.04 688.696 560.32 689.736 560.88C690.776 561.44 691.584 562.216 692.16 563.208C692.752 564.2 693.048 565.328 693.048 566.592C693.048 567.856 692.752 568.992 692.16 570C691.584 570.992 690.776 571.768 689.736 572.328C688.696 572.888 687.52 573.168 686.208 573.168ZM686.208 570.6C687.312 570.6 688.224 570.232 688.944 569.496C689.664 568.76 690.024 567.792 690.024 566.592C690.024 565.392 689.664 564.424 688.944 563.688C688.224 562.952 687.312 562.584 686.208 562.584C685.104 562.584 684.192 562.952 683.472 563.688C682.768 564.424 682.416 565.392 682.416 566.592C682.416 567.792 682.768 568.76 683.472 569.496C684.192 570.232 685.104 570.6 686.208 570.6ZM698.773 562.056C699.637 560.712 701.157 560.04 703.333 560.04V562.896C703.077 562.848 702.845 562.824 702.637 562.824C701.469 562.824 700.557 563.168 699.901 563.856C699.245 564.528 698.917 565.504 698.917 566.784V573H695.917V560.184H698.773V562.056ZM708.734 562.056C709.598 560.712 711.118 560.04 713.294 560.04V562.896C713.038 562.848 712.806 562.824 712.598 562.824C711.43 562.824 710.518 563.168 709.862 563.856C709.206 564.528 708.878 565.504 708.878 566.784V573H705.878V560.184H708.734V562.056ZM727.77 566.664C727.77 566.872 727.754 567.168 727.722 567.552H717.666C717.842 568.496 718.298 569.248 719.034 569.808C719.786 570.352 720.714 570.624 721.818 570.624C723.226 570.624 724.386 570.16 725.298 569.232L726.906 571.08C726.33 571.768 725.602 572.288 724.722 572.64C723.842 572.992 722.85 573.168 721.746 573.168C720.338 573.168 719.098 572.888 718.026 572.328C716.954 571.768 716.122 570.992 715.53 570C714.954 568.992 714.666 567.856 714.666 566.592C714.666 565.344 714.946 564.224 715.506 563.232C716.082 562.224 716.874 561.44 717.882 560.88C718.89 560.32 720.026 560.04 721.29 560.04C722.538 560.04 723.65 560.32 724.626 560.88C725.618 561.424 726.386 562.2 726.93 563.208C727.49 564.2 727.77 565.352 727.77 566.664ZM721.29 562.44C720.33 562.44 719.514 562.728 718.842 563.304C718.186 563.864 717.786 564.616 717.642 565.56H724.914C724.786 564.632 724.394 563.88 723.738 563.304C723.082 562.728 722.266 562.44 721.29 562.44ZM738.356 572.304C738.004 572.592 737.572 572.808 737.06 572.952C736.564 573.096 736.036 573.168 735.476 573.168C734.068 573.168 732.98 572.8 732.212 572.064C731.444 571.328 731.06 570.256 731.06 568.848V562.68H728.948V560.28H731.06V557.352H734.06V560.28H737.492V562.68H734.06V568.776C734.06 569.4 734.212 569.88 734.516 570.216C734.82 570.536 735.26 570.696 735.836 570.696C736.508 570.696 737.068 570.52 737.516 570.168L738.356 572.304ZM745.719 560.04C747.607 560.04 749.047 560.496 750.039 561.408C751.047 562.304 751.551 563.664 751.551 565.488V573H748.719V571.44C748.351 572 747.823 572.432 747.135 572.736C746.463 573.024 745.647 573.168 744.687 573.168C743.727 573.168 742.887 573.008 742.167 572.688C741.447 572.352 740.887 571.896 740.487 571.32C740.103 570.728 739.911 570.064 739.911 569.328C739.911 568.176 740.335 567.256 741.183 566.568C742.047 565.864 743.399 565.512 745.239 565.512H748.551V565.32C748.551 564.424 748.279 563.736 747.735 563.256C747.207 562.776 746.415 562.536 745.359 562.536C744.639 562.536 743.927 562.648 743.223 562.872C742.535 563.096 741.951 563.408 741.471 563.808L740.295 561.624C740.967 561.112 741.775 560.72 742.719 560.448C743.663 560.176 744.663 560.04 745.719 560.04ZM745.311 570.984C746.063 570.984 746.727 570.816 747.303 570.48C747.895 570.128 748.311 569.632 748.551 568.992V567.504H745.455C743.727 567.504 742.863 568.072 742.863 569.208C742.863 569.752 743.079 570.184 743.511 570.504C743.943 570.824 744.543 570.984 745.311 570.984Z" fill="#9B9BB2"/>
<path d="M456.083 425.917L509.833 372.167M663.916 307.667C663.916 258.192 623.808 218.084 574.333 218.084C524.857 218.084 484.749 258.192 484.749 307.667C484.749 357.143 524.857 397.251 574.333 397.251" stroke="#E70000" stroke-opacity="0.45" stroke-width="4" stroke-linecap="round" stroke-linejoin="round"/>
<path d="M669.25 338.75L602.75 405.25" stroke="#F08889" stroke-width="4" stroke-linecap="round" stroke-linejoin="round"/>
<path d="M602.75 338.75L669.25 405.25" stroke="#F08889" stroke-width="4" stroke-linecap="round" stroke-linejoin="round"/>
<path d="M707.999 180.001C717.572 180.001 725.333 172.24 725.333 162.667C725.333 153.094 717.572 145.334 707.999 145.334C698.426 145.334 690.666 153.094 690.666 162.667C690.666 172.24 698.426 180.001 707.999 180.001Z" fill="#F5BDB2" stroke="#F2D6D0" stroke-linecap="round" stroke-linejoin="round"/>
<path d="M709.332 222.666H681.063C674.773 222.666 670.079 217.121 673.284 211.708C677.932 203.857 687.942 194.666 709.332 194.666" fill="#F5BDB2"/>
<path d="M709.332 222.666H681.063C674.773 222.666 670.079 217.121 673.284 211.708C677.932 203.857 687.942 194.666 709.332 194.666" stroke="#F2D6D0" stroke-linecap="round" stroke-linejoin="round"/>
<path d="M746.667 222.667L728 204" stroke="#F2D6D0" stroke-width="1.5" stroke-linecap="round" stroke-linejoin="round"/>
<path d="M728 222.667L746.667 204" stroke="#F2D6D0" stroke-width="1.5" stroke-linecap="round" stroke-linejoin="round"/>
</svg>
